PathFileType	4	(X/Y/Z)	s05c0301.trc
DataRate	CameraRate	NumFrames	NumMarkers	Units	OrigDataRate	OrigDataStartFrame	OrigNumFrames
200	200	4	50	mm	200	0	2000
Frame#	Time	racr			lacr			c7			jug			rlel			rdr			llel			ldr			s2			lic			ric			lasi			rasi			rpsi			lpsi			rgt			lgt			rth1			rth2			rth3			rth4			rlfc			rmfc			rsh1			rsh2			rsh3			rsh4			rlmal			rmmal			rcal			rtoe			rmt5			lth1			lth2			lth4			lth3			llfc			lmfc			lsh1			lsh2			lsh3			lsh4			llmal			lmmal			lcal			ltoe			lmt5			SBIKE			LBIKE			RBIKE			
		X1	Y1	Z1	X2	Y2	Z2	X3	Y3	Z3	X4	Y4	Z4	X5	Y5	Z5	X6	Y6	Z6	X7	Y7	Z7	X8	Y8	Z8	X9	Y9	Z9	X10	Y10	Z10	X11	Y11	Z11	X12	Y12	Z12	X13	Y13	Z13	X14	Y14	Z14	X15	Y15	Z15	X16	Y16	Z16	X17	Y17	Z17	X18	Y18	Z18	X19	Y19	Z19	X20	Y20	Z20	X21	Y21	Z21	X22	Y22	Z22	X23	Y23	Z23	X24	Y24	Z24	X25	Y25	Z25	X26	Y26	Z26	X27	Y27	Z27	X28	Y28	Z28	X29	Y29	Z29	X30	Y30	Z30	X31	Y31	Z31	X32	Y32	Z32	X33	Y33	Z33	X34	Y34	Z34	X35	Y35	Z35	X36	Y36	Z36	X37	Y37	Z37	X38	Y38	Z38	X39	Y39	Z39	X40	Y40	Z40	X41	Y41	Z41	X42	Y42	Z42	X43	Y43	Z43	X44	Y44	Z44	X45	Y45	Z45	X46	Y46	Z46	X47	Y47	Z47	X48	Y48	Z48	X49	Y49	Z49	X50	Y50	Z50	
0	0.0000	414.216952	1360.306081	-155.406813	409.512120	1367.260299	-448.615815	397.416885	1452.249311	-305.488096	378.108812	1295.070023	-301.905766	502.962265	1115.980281	-58.233949	682.627137	919.782398	-101.382394	476.140877	1104.812927	-531.301054	674.460018	917.513682	-464.874662	-110.655627	1156.922986	-277.069536	33.463168	1171.342958	-425.779255	42.984937	1192.024837	-145.286890	83.719046	1119.388769	-392.192504	82.690583	1130.497033	-172.840169	-78.584514	1204.021857	-239.690017	-77.594240	1204.762312	-325.102470	4.340624	1065.425519	-106.191870	-37.858084	1062.141767	-447.091700	104.031742	1006.174072	-93.361641	192.195462	990.975048	-88.566497	258.736975	932.979204	-90.464006	207.395934	1022.993174	-101.537973	391.206736	853.077969	-118.023776	377.517711	847.852715	-227.939166	329.411447	760.066681	-94.372073	321.587327	672.934999	-105.024951	272.585111	601.507010	-109.593735	349.374822	665.032376	-130.724704	232.279023	474.089498	-121.190938	243.866556	503.645957	-199.552703	160.634551	440.669471	-166.321446	455.327042	423.301490	-160.054590	354.730553	398.106117	-95.337688	42.606870	945.182443	-470.981897	112.113075	895.737397	-475.784146	142.126286	915.997805	-464.619622	147.159748	811.587461	-478.619097	223.567402	679.134006	-457.634803	216.036578	673.194059	-347.525859	130.047646	591.272679	-473.698942	91.318353	514.057666	-456.251890	16.726626	466.414562	-451.770436	116.087678	497.889630	-432.741046	-58.515756	368.869436	-435.289943	-23.789763	389.687519	-359.934971	-129.839523	346.618184	-388.700153	148.022778	251.511965	-402.764615	35.414975	254.347549	-462.056813	-220.798285	910.645535	-274.860609	-53.343349	79.198838	-474.915033	-53.206570	78.784045	-77.241171	
1	0.0050	414.172638	1360.316157	-155.332595	409.516819	1367.311836	-448.594267	397.420765	1452.189878	-305.427850	378.073149	1295.093054	-301.869633	503.031782	1116.028692	-58.316708	682.629249	919.767761	-101.386408	476.367073	1105.024121	-531.368955	674.472837	917.507445	-464.880556	-110.671217	1156.949699	-277.061366	33.441038	1171.344514	-425.771920	42.969185	1192.031974	-145.282305	83.697142	1119.371396	-392.185824	82.677711	1130.503385	-172.839830	-78.582670	1204.053425	-239.693866	-77.570431	1204.777531	-325.115573	4.292604	1065.400018	-106.190894	-37.868600	1062.157670	-447.069244	103.962929	1006.126156	-93.302920	192.114851	990.920534	-88.483640	258.662483	932.929632	-90.410902	207.333154	1022.959434	-101.463197	391.122254	853.024468	-117.942905	377.461661	847.819523	-227.918582	329.350978	760.017584	-94.349446	321.527943	672.853733	-104.987821	272.535815	601.425535	-109.573577	349.329285	664.965177	-130.700046	232.303245	473.997729	-121.191152	243.863543	503.562320	-199.546795	160.668848	440.568312	-166.318423	455.325921	423.262487	-160.052221	354.739424	398.050344	-95.346428	42.606472	945.195501	-470.982142	112.114951	895.761057	-475.775992	142.145222	916.055947	-464.616734	147.169333	811.645497	-478.619801	223.613897	679.190756	-457.650568	216.092242	673.232716	-347.543785	130.073040	591.340575	-473.711664	91.352311	514.125958	-456.286772	16.755560	466.482999	-451.783908	116.103066	497.963537	-432.719477	-58.515445	368.976764	-435.297479	-23.781490	389.801337	-359.953252	-129.835471	346.729644	-388.694447	147.999595	251.560205	-402.757869	35.399842	254.417048	-462.053518	-220.797999	910.632856	-274.874011	-53.361767	79.195181	-474.933077	-53.197608	78.783259	-77.236896	
2	0.0100	414.136887	1360.338233	-155.294800	409.499536	1367.383651	-448.542084	397.444177	1452.169879	-305.377044	378.087146	1295.093049	-301.840585	503.100106	1116.073841	-58.347613	682.637048	919.749419	-101.398765	476.546439	1105.167557	-531.270301	674.486623	917.511566	-464.863278	-110.684667	1156.961675	-277.060291	33.468552	1171.371531	-425.788451	42.970340	1192.028664	-145.283386	83.694100	1119.344520	-392.177583	82.633233	1130.506243	-172.816147	-78.598653	1204.078219	-239.682916	-77.570603	1204.786758	-325.099902	4.221439	1065.391188	-106.164716	-37.879800	1062.175221	-447.061600	103.898653	1006.091873	-93.257099	192.036687	990.870105	-88.425787	258.585495	932.866052	-90.345430	207.262428	1022.902142	-101.387890	391.048589	852.945971	-117.889314	377.406671	847.762165	-227.838744	329.281930	759.957735	-94.303111	321.490411	672.771741	-104.955146	272.474465	601.321414	-109.533810	349.295635	664.915655	-130.652682	232.290215	473.938499	-121.178434	243.869641	503.463141	-199.539187	160.673474	440.444810	-166.310864	455.348373	423.231772	-160.050928	354.754437	397.987224	-95.339894	42.602583	945.237391	-470.975653	112.119085	895.803991	-475.778838	142.152857	916.107697	-464.607521	147.190752	811.678957	-478.613850	223.643074	679.245369	-457.656517	216.129020	673.286347	-347.560074	130.106494	591.403998	-473.716009	91.379694	514.176710	-456.279326	16.771306	466.561190	-451.783463	116.131481	498.035419	-432.715947	-58.512362	369.062970	-435.288142	-23.802521	389.897446	-359.920525	-129.831706	346.823423	-388.684699	147.975309	251.591056	-402.755585	35.389895	254.472274	-462.037179	-220.791931	910.631669	-274.871344	-53.364407	79.203031	-474.936173	-53.191941	78.778011	-77.247853	
3	0.0150	414.115180	1360.348572	-155.238802	409.806515	1367.369569	-448.604638	397.453720	1452.150800	-305.320926	378.051553	1295.103411	-301.802342	503.159169	1116.138752	-58.409096	682.610151	919.707990	-101.314024	476.726686	1105.350994	-531.164957	674.510381	917.517698	-464.895376	-110.691551	1156.976533	-277.063143	33.457281	1171.359384	-425.744233	42.741886	1192.316198	-145.976914	83.522173	1119.828354	-392.132675	82.610539	1130.531134	-172.807244	-78.616430	1204.101337	-239.689004	-77.587220	1204.806412	-325.090066	4.082447	1065.294386	-106.145086	-37.884935	1062.198137	-447.064343	103.811518	1006.048695	-93.205134	191.942268	990.803368	-88.373761	258.345129	932.765115	-90.378672	207.194958	1022.846696	-101.330949	390.962630	852.883229	-117.825202	377.346752	847.707290	-227.799710	329.200470	759.911188	-94.266812	320.302938	671.563934	-105.529062	272.418611	601.216195	-109.508735	349.621772	664.820921	-130.392675	231.992703	474.337150	-120.925267	243.932351	503.327269	-199.537371	160.666201	440.318692	-166.307516	455.356245	423.196314	-160.050650	354.783799	397.921743	-95.339044	42.743413	945.339423	-471.124634	112.289705	895.268595	-475.419551	141.985833	916.065818	-464.396748	147.481553	811.620974	-477.930316	223.683378	679.294323	-457.666043	216.170069	673.322310	-347.583619	130.141104	591.470404	-473.725849	91.414309	514.249054	-456.292689	16.734494	466.658385	-451.815690	115.361178	498.169741	-431.473261	-58.546089	369.241372	-435.357309	-23.800915	389.970524	-359.921435	-129.831269	346.928180	-388.685520	147.956677	251.627175	-402.756718	35.377084	254.551239	-462.055540	-220.961089	910.759217	-275.560991	-53.367512	79.186733	-474.932610	-53.177173	78.775995	-77.246209	
